<?xml version="1.0" standalone="no"?>
<!DOCTYPE svg PUBLIC "-//W3C//DTD SVG 20010904//EN"
 "http://www.w3.org/TR/2001/REC-SVG-20010904/DTD/svg10.dtd">
<svg version="1.0" xmlns="http://www.w3.org/2000/svg"
 width="112.000000pt" height="112.000000pt" viewBox="0 0 112.000000 112.000000"
 preserveAspectRatio="xMidYMid meet">
<metadata>
Created by potrace 1.14, written by Peter Selinger 2001-2017
</metadata>
<g transform="translate(0.000000,112.000000) scale(0.100000,-0.100000)"
fill="#000000" stroke="none">
<path d="M141 613 c1 -291 5 -439 13 -463 l11 -35 120 -3 c66 -2 144 0 173 3
l52 6 1 137 0 137 20 -55 c12 -30 27 -68 34 -85 7 -16 23 -60 36 -97 21 -61
30 -71 59 -70 83 4 262 23 272 29 9 5 12 -4 -105 257 l-86 190 115 221 c63
122 114 227 114 233 0 9 -45 12 -159 12 l-158 0 -18 -47 c-9 -27 -25 -66 -34
-88 -10 -22 -36 -85 -57 -140 l-39 -99 -3 192 -2 192 -181 0 -180 0 2 -427z"/>
</g>
</svg>
